<?xml version="1.0" encoding="utf-8"?>
<!-- Generator: Adobe Illustrator 25.2.1, SVG Export Plug-In . SVG Version: 6.00 Build 0)  -->
<svg version="1.1" id="Layer_1" xmlns="http://www.w3.org/2000/svg" xmlns:xlink="http://www.w3.org/1999/xlink" x="0px" y="0px"
	 viewBox="0 0 192 46" style="enable-background:new 0 0 192 46;" xml:space="preserve">
<style type="text/css">
	.st0{fill-rule:evenodd;clip-rule:evenodd;fill:#FFFFFF;}
</style>
<desc>Created with Sketch.</desc>
<g id="Page-1">
	<g id="Artboard" transform="translate(-277.000000, -272.000000)">
		<g id="IOHK-logo" transform="translate(277.000000, 271.000000)">
			<g id="iohk" transform="translate(0.000000, 0.890000)">
				<polygon id="Fill-27" class="st0" points="0.1,31.6 2.1,31.6 2.1,14.7 0.1,14.7 				"/>
				<polygon id="Fill-29" class="st0" points="81.8,41.5 83.9,41.5 83.9,4.7 81.8,4.7 				"/>
				<path id="Fill-30" class="st0" d="M19.1,28.4L19.1,28.4c0-0.4-0.1-0.8-0.1-1.2V14.7h2v16.9h-2L10.1,18l-0.1,0
					c0.1,0.4,0.2,0.8,0.2,1.2v12.4h-2V14.7h2L19.1,28.4z"/>
				<path id="Fill-31" class="st0" d="M29.1,16.3v6.8h6c0.3,0,0.5,0,0.6,0c0.1,0,0.2-0.1,0.3-0.2c0.1-0.1,0.2-0.2,0.3-0.3
					c0-0.1,0-0.2,0-0.5v-4.8c0-0.2,0-0.4,0-0.5c0-0.1-0.1-0.2-0.3-0.3c-0.1-0.1-0.3-0.2-0.3-0.2c-0.1,0-0.3,0-0.6,0H29.1z
					 M29.1,24.8v6.8h-2V14.7H36c0.4,0,0.8,0.2,1.2,0.5l0.6,0.5c0.4,0.3,0.6,0.7,0.6,1.2v5.8c0,0.5-0.2,0.9-0.6,1.2l-0.6,0.5
					c-0.4,0.3-0.8,0.5-1.2,0.5H29.1z"/>
				<path id="Fill-32" class="st0" d="M54.6,14.7h2v14.7c0,0.5-0.2,0.9-0.6,1.2l-0.6,0.5c-0.4,0.3-0.8,0.5-1.2,0.5h-8.2
					c-0.4,0-0.8-0.2-1.2-0.5l-0.6-0.5c-0.4-0.3-0.6-0.7-0.6-1.2V14.7h2v14.2c0,0.2,0,0.4,0,0.5c0,0.1,0.1,0.2,0.3,0.3
					c0.1,0.1,0.3,0.2,0.3,0.2c0.1,0,0.3,0,0.6,0h6.4c0.3,0,0.5,0,0.6,0c0.1,0,0.2-0.1,0.3-0.2c0.1-0.1,0.2-0.2,0.3-0.3
					c0-0.1,0-0.2,0-0.5V14.7z"/>
				<polygon id="Fill-33" class="st0" points="60.1,14.7 72.8,14.7 72.8,16.3 67.5,16.3 67.5,31.6 65.4,31.6 65.4,16.3 60.1,16.3 
									"/>
				<path id="Fill-34" class="st0" d="M105.4,28.9V17.3c0-0.2,0-0.4,0-0.5c0-0.1-0.1-0.2-0.3-0.3c-0.1-0.1-0.3-0.2-0.3-0.2
					c-0.1,0-0.3,0-0.6,0h-7.1c-0.3,0-0.5,0-0.6,0c-0.1,0-0.2,0.1-0.3,0.2c-0.1,0.1-0.2,0.2-0.3,0.3c0,0.1,0,0.2,0,0.5v11.5
					c0,0.2,0,0.4,0,0.5c0,0.1,0.1,0.2,0.3,0.3c0.1,0.1,0.3,0.2,0.3,0.2c0.1,0,0.3,0,0.6,0h7.1c0.3,0,0.5,0,0.6,0
					c0.1,0,0.2-0.1,0.3-0.2c0.1-0.1,0.2-0.2,0.3-0.3C105.4,29.3,105.4,29.1,105.4,28.9 M96.3,14.7h8.8c0.4,0,0.8,0.2,1.2,0.5
					l0.6,0.5c0.4,0.3,0.6,0.7,0.6,1.2v12.6c0,0.5-0.2,0.9-0.6,1.2l-0.6,0.5c-0.4,0.3-0.8,0.5-1.2,0.5h-8.8c-0.4,0-0.8-0.2-1.2-0.5
					l-0.6-0.5c-0.4-0.3-0.6-0.7-0.6-1.2V16.8c0-0.5,0.2-0.9,0.6-1.2l0.6-0.5C95.5,14.8,95.9,14.7,96.3,14.7"/>
				<path id="Fill-35" class="st0" d="M124.3,14.7h2v14.7c0,0.5-0.2,0.9-0.6,1.2l-0.6,0.5c-0.4,0.3-0.8,0.5-1.2,0.5h-8.2
					c-0.4,0-0.8-0.2-1.2-0.5l-0.6-0.5c-0.4-0.3-0.6-0.7-0.6-1.2V14.7h2v14.2c0,0.2,0,0.4,0,0.5c0,0.1,0.1,0.2,0.3,0.3
					c0.1,0.1,0.3,0.2,0.3,0.2c0.1,0,0.3,0,0.6,0h6.4c0.3,0,0.5,0,0.6,0c0.1,0,0.2-0.1,0.3-0.2c0.1-0.1,0.2-0.2,0.3-0.3
					c0-0.1,0-0.2,0-0.5V14.7z"/>
				<polygon id="Fill-36" class="st0" points="129.8,14.7 142.6,14.7 142.6,16.3 137.2,16.3 137.2,31.6 135.2,31.6 135.2,16.3 
					129.8,16.3 				"/>
				<path id="Fill-37" class="st0" d="M148.1,16.3v6.8h6c0.3,0,0.5,0,0.6,0c0.1,0,0.2-0.1,0.3-0.2c0.1-0.1,0.2-0.2,0.3-0.3
					c0-0.1,0-0.2,0-0.5v-4.8c0-0.2,0-0.4,0-0.5c0-0.1-0.1-0.2-0.3-0.3c-0.1-0.1-0.3-0.2-0.3-0.2c-0.1,0-0.3,0-0.6,0H148.1z
					 M148.1,24.8v6.8h-2V14.7h8.9c0.4,0,0.8,0.2,1.2,0.5l0.6,0.5c0.4,0.3,0.6,0.7,0.6,1.2v5.8c0,0.5-0.2,0.9-0.6,1.2l-0.6,0.5
					c-0.4,0.3-0.8,0.5-1.2,0.5H148.1z"/>
				<path id="Fill-38" class="st0" d="M173.6,14.7h2v14.7c0,0.5-0.2,0.9-0.6,1.2l-0.6,0.5c-0.4,0.3-0.8,0.5-1.2,0.5h-8.2
					c-0.4,0-0.8-0.2-1.2-0.5l-0.6-0.5c-0.4-0.3-0.6-0.7-0.6-1.2V14.7h2v14.2c0,0.2,0,0.4,0,0.5c0,0.1,0.1,0.2,0.3,0.3
					c0.1,0.1,0.3,0.2,0.3,0.2c0.1,0,0.3,0,0.6,0h6.4c0.3,0,0.5,0,0.6,0c0.1,0,0.2-0.1,0.3-0.2c0.1-0.1,0.2-0.2,0.3-0.3
					c0-0.1,0-0.2,0-0.5V14.7z"/>
				<polygon id="Fill-39" class="st0" points="179.1,14.7 191.9,14.7 191.9,16.3 186.5,16.3 186.5,31.6 184.5,31.6 184.5,16.3 
					179.1,16.3 				"/>
			</g>
		</g>
	</g>
</g>
</svg>
